<?xml version="1.0" encoding="UTF-8" standalone="no"?>
<svg
   version="1.1"
   viewBox="0.00 0.00 1024.00 1024.00"
   id="svg168"
   sodipodi:docname="Logo.svg"
   inkscape:version="1.2.2 (732a01da63, 2022-12-09)"
   xml:space="preserve"
   inkscape:export-filename="YT Logo.jpg"
   inkscape:export-xdpi="96"
   inkscape:export-ydpi="96"
   xmlns:inkscape="http://www.inkscape.org/namespaces/inkscape"
   xmlns:sodipodi="http://sodipodi.sourceforge.net/DTD/sodipodi-0.dtd"
   xmlns:xlink="http://www.w3.org/1999/xlink"
   xmlns="http://www.w3.org/2000/svg"
   xmlns:svg="http://www.w3.org/2000/svg"><defs
     id="defs172"><linearGradient
       inkscape:collect="always"
       id="linearGradient15164"><stop
         style="stop-color:#c52f21;stop-opacity:1;"
         offset="0"
         id="stop15160" /><stop
         style="stop-color:#ffe54c;stop-opacity:1;"
         offset="0.30110499"
         id="stop15168" /><stop
         style="stop-color:#ffe54c;stop-opacity:1;"
         offset="0.69751376"
         id="stop16619" /><stop
         style="stop-color:#c52f21;stop-opacity:1;"
         offset="1"
         id="stop15162" /></linearGradient><linearGradient
       inkscape:collect="always"
       id="linearGradient1201"><stop
         style="stop-color:#296dc7;stop-opacity:1;"
         offset="0"
         id="stop1197" /><stop
         style="stop-color:#58e2cf;stop-opacity:1;"
         offset="1"
         id="stop1199" /></linearGradient><linearGradient
       inkscape:collect="always"
       id="linearGradient1191"><stop
         style="stop-color:#001117;stop-opacity:1;"
         offset="0.00552486"
         id="stop1187" /><stop
         style="stop-color:#150708;stop-opacity:1;"
         offset="1"
         id="stop1189" /></linearGradient><linearGradient
       inkscape:collect="always"
       xlink:href="#linearGradient1191"
       id="linearGradient1195"
       x1="-2.3137877"
       y1="-2.6202817"
       x2="1015.4981"
       y2="1019.2983"
       gradientUnits="userSpaceOnUse"
       gradientTransform="matrix(0.93460925,0,0,0.91263651,36.032315,44.791803)" /><linearGradient
       inkscape:collect="always"
       xlink:href="#linearGradient1201"
       id="linearGradient1203"
       x1="207.95399"
       y1="498.21888"
       x2="817.09208"
       y2="498.21888"
       gradientUnits="userSpaceOnUse" /><linearGradient
       inkscape:collect="always"
       xlink:href="#linearGradient15164"
       id="linearGradient15166"
       x1="360.65723"
       y1="477.92459"
       x2="664.98788"
       y2="477.92459"
       gradientUnits="userSpaceOnUse" /><linearGradient
       inkscape:collect="always"
       xlink:href="#linearGradient1201"
       id="linearGradient21264"
       x1="312.48999"
       y1="246.37212"
       x2="359.12567"
       y2="246.37212"
       gradientUnits="userSpaceOnUse" /><linearGradient
       inkscape:collect="always"
       xlink:href="#linearGradient1201"
       id="linearGradient21266"
       x1="666.66284"
       y1="247.42493"
       x2="712.70245"
       y2="247.42493"
       gradientUnits="userSpaceOnUse" /><linearGradient
       inkscape:collect="always"
       xlink:href="#linearGradient1201"
       id="linearGradient21268"
       x1="757.68542"
       y1="255.10641"
       x2="805.1076"
       y2="255.10641"
       gradientUnits="userSpaceOnUse" /><linearGradient
       inkscape:collect="always"
       xlink:href="#linearGradient1201"
       id="linearGradient21270"
       x1="220.52231"
       y1="255.23904"
       x2="268.57117"
       y2="255.23904"
       gradientUnits="userSpaceOnUse" /><linearGradient
       inkscape:collect="always"
       xlink:href="#linearGradient1201"
       id="linearGradient21272"
       x1="268.39783"
       y1="329.93274"
       x2="468.89191"
       y2="329.93274"
       gradientUnits="userSpaceOnUse" /><linearGradient
       inkscape:collect="always"
       xlink:href="#linearGradient1201"
       id="linearGradient21274"
       x1="556.09497"
       y1="329.75735"
       x2="757.28815"
       y2="329.75735"
       gradientUnits="userSpaceOnUse" /><linearGradient
       inkscape:collect="always"
       xlink:href="#linearGradient1201"
       id="linearGradient21276"
       x1="357.87027"
       y1="270.69547"
       x2="669.32697"
       y2="270.69547"
       gradientUnits="userSpaceOnUse" /><linearGradient
       inkscape:collect="always"
       xlink:href="#linearGradient1201"
       id="linearGradient21278"
       x1="218.08611"
       y1="349.86511"
       x2="327.51614"
       y2="349.86511"
       gradientUnits="userSpaceOnUse" /><linearGradient
       inkscape:collect="always"
       xlink:href="#linearGradient1201"
       id="linearGradient21280"
       x1="698.79712"
       y1="349.95944"
       x2="807.20959"
       y2="349.95944"
       gradientUnits="userSpaceOnUse" /><linearGradient
       inkscape:collect="always"
       xlink:href="#linearGradient1201"
       id="linearGradient21282"
       x1="461.74109"
       y1="433.21985"
       x2="563.92786"
       y2="433.21985"
       gradientUnits="userSpaceOnUse" /><linearGradient
       inkscape:collect="always"
       xlink:href="#linearGradient1201"
       id="linearGradient21284"
       x1="207.95399"
       y1="412.93268"
       x2="270.00507"
       y2="412.93268"
       gradientUnits="userSpaceOnUse" /><linearGradient
       inkscape:collect="always"
       xlink:href="#linearGradient1201"
       id="linearGradient21286"
       x1="756.07574"
       y1="412.85361"
       x2="817.0921"
       y2="412.85361"
       gradientUnits="userSpaceOnUse" /><linearGradient
       inkscape:collect="always"
       xlink:href="#linearGradient1201"
       id="linearGradient21288"
       x1="553.29871"
       y1="485.54117"
       x2="728.52203"
       y2="485.54117"
       gradientUnits="userSpaceOnUse" /><linearGradient
       inkscape:collect="always"
       xlink:href="#linearGradient1201"
       id="linearGradient21290"
       x1="297.76587"
       y1="485.5545"
       x2="472.10349"
       y2="485.5545"
       gradientUnits="userSpaceOnUse" /><linearGradient
       inkscape:collect="always"
       xlink:href="#linearGradient1201"
       id="linearGradient21292"
       x1="220.60309"
       y1="455.15469"
       x2="255.11823"
       y2="455.15469"
       gradientUnits="userSpaceOnUse" /><linearGradient
       inkscape:collect="always"
       xlink:href="#linearGradient1201"
       id="linearGradient21294"
       x1="770.90399"
       y1="455.14688"
       x2="805.49677"
       y2="455.14688"
       gradientUnits="userSpaceOnUse" /><linearGradient
       inkscape:collect="always"
       xlink:href="#linearGradient1201"
       id="linearGradient21296"
       x1="458.04645"
       y1="481.64865"
       x2="502.78336"
       y2="481.64865"
       gradientUnits="userSpaceOnUse" /><linearGradient
       inkscape:collect="always"
       xlink:href="#linearGradient1201"
       id="linearGradient21298"
       x1="523.12195"
       y1="481.82791"
       x2="567.88251"
       y2="481.82791"
       gradientUnits="userSpaceOnUse" /><linearGradient
       inkscape:collect="always"
       xlink:href="#linearGradient1201"
       id="linearGradient21300"
       x1="217.31998"
       y1="517.44965"
       x2="255.76453"
       y2="517.44965"
       gradientUnits="userSpaceOnUse" /><linearGradient
       inkscape:collect="always"
       xlink:href="#linearGradient1201"
       id="linearGradient21302"
       x1="770.14984"
       y1="517.68561"
       x2="808.74237"
       y2="517.68561"
       gradientUnits="userSpaceOnUse" /><linearGradient
       inkscape:collect="always"
       xlink:href="#linearGradient1201"
       id="linearGradient21304"
       x1="751.25189"
       y1="598.60107"
       x2="786.92023"
       y2="598.60107"
       gradientUnits="userSpaceOnUse" /><linearGradient
       inkscape:collect="always"
       xlink:href="#linearGradient1201"
       id="linearGradient21306"
       x1="239.36617"
       y1="598.74664"
       x2="274.5928"
       y2="598.74664"
       gradientUnits="userSpaceOnUse" /><linearGradient
       inkscape:collect="always"
       xlink:href="#linearGradient1201"
       id="linearGradient21308"
       x1="539.07739"
       y1="587.75073"
       x2="714.65997"
       y2="587.75073"
       gradientUnits="userSpaceOnUse" /><linearGradient
       inkscape:collect="always"
       xlink:href="#linearGradient1201"
       id="linearGradient21310"
       x1="310.93552"
       y1="587.73535"
       x2="486.4516"
       y2="587.73535"
       gradientUnits="userSpaceOnUse" /><linearGradient
       inkscape:collect="always"
       xlink:href="#linearGradient1201"
       id="linearGradient21312"
       x1="504.03128"
       y1="600.16376"
       x2="530.57001"
       y2="600.16376"
       gradientUnits="userSpaceOnUse" /><linearGradient
       inkscape:collect="always"
       xlink:href="#linearGradient1201"
       id="linearGradient21314"
       x1="290.33536"
       y1="645.56238"
       x2="327.77438"
       y2="645.56238"
       gradientUnits="userSpaceOnUse" /><linearGradient
       inkscape:collect="always"
       xlink:href="#linearGradient1201"
       id="linearGradient21316"
       x1="697.79199"
       y1="645.39868"
       x2="735.39459"
       y2="645.39868"
       gradientUnits="userSpaceOnUse" /><linearGradient
       inkscape:collect="always"
       xlink:href="#linearGradient1201"
       id="linearGradient21318"
       x1="337.7164"
       y1="638.66882"
       x2="380.99341"
       y2="638.66882"
       gradientUnits="userSpaceOnUse" /><linearGradient
       inkscape:collect="always"
       xlink:href="#linearGradient1201"
       id="linearGradient21320"
       x1="645.01221"
       y1="638.77661"
       x2="688.46686"
       y2="638.77661"
       gradientUnits="userSpaceOnUse" /><linearGradient
       inkscape:collect="always"
       xlink:href="#linearGradient1201"
       id="linearGradient21322"
       x1="401.25107"
       y1="703.5296"
       x2="443.58487"
       y2="703.5296"
       gradientUnits="userSpaceOnUse" /><linearGradient
       inkscape:collect="always"
       xlink:href="#linearGradient1201"
       id="linearGradient21324"
       x1="582.48865"
       y1="703.77808"
       x2="624.35138"
       y2="703.77808"
       gradientUnits="userSpaceOnUse" /><linearGradient
       inkscape:collect="always"
       xlink:href="#linearGradient1201"
       id="linearGradient21326"
       x1="342.03177"
       y1="748.93768"
       x2="399.76492"
       y2="748.93768"
       gradientUnits="userSpaceOnUse" /><linearGradient
       inkscape:collect="always"
       xlink:href="#linearGradient1201"
       id="linearGradient21328"
       x1="626.07434"
       y1="749.39032"
       x2="683.74213"
       y2="749.39032"
       gradientUnits="userSpaceOnUse" /><linearGradient
       inkscape:collect="always"
       xlink:href="#linearGradient15164"
       id="linearGradient459"
       gradientUnits="userSpaceOnUse"
       x1="360.65723"
       y1="477.92459"
       x2="664.98788"
       y2="477.92459" /><linearGradient
       inkscape:collect="always"
       xlink:href="#linearGradient15164"
       id="linearGradient461"
       gradientUnits="userSpaceOnUse"
       x1="360.65723"
       y1="477.92459"
       x2="664.98788"
       y2="477.92459" /></defs><sodipodi:namedview
     id="namedview170"
     pagecolor="#505050"
     bordercolor="#eeeeee"
     borderopacity="1"
     inkscape:showpageshadow="0"
     inkscape:pageopacity="0"
     inkscape:pagecheckerboard="0"
     inkscape:deskcolor="#505050"
     showgrid="false"
     inkscape:zoom="0.57245266"
     inkscape:cx="260.28353"
     inkscape:cy="513.57959"
     inkscape:window-width="1920"
     inkscape:window-height="1009"
     inkscape:window-x="-8"
     inkscape:window-y="-8"
     inkscape:window-maximized="1"
     inkscape:current-layer="svg168" /><rect
     style="fill:url(#linearGradient1195);fill-opacity:1;stroke:#ffffff;stroke-width:1.13386"
     id="rect1170"
     width="1023.6655"
     height="1021.9186"
     x="1.7468691"
     y="1.7468688"
     inkscape:label="BG" /><g
     fill="#fdfdfd"
     id="g160"
     style="display:inline;fill:url(#linearGradient1203);fill-opacity:1;stroke-width:0.840649"
     inkscape:label="Owl"
     transform="matrix(1.1838224,0,0,1.1953198,-99.367043,-45.388591)"><path
       d="m 329.08,253.69 c 5.29,13.36 15.43,27 24.34,39.16 4.84,6.61 4.28,13.08 5.7,20.85 a 0.27,0.27 0 0 1 -0.47,0.23 c -18.59,-20.27 -33.93,-44.89 -39.87,-72.09 -4.42,-20.28 -6.29,-41.99 -6.29,-62.73 q 0,-0.12 0.08,-0.21 0.12,-0.13 0.24,-0.17 0.17,-0.05 0.18,0.13 2.24,39.88 16.09,74.83 z"
       id="path90"
       style="display:inline;fill:url(#linearGradient21264);fill-opacity:1;stroke-width:0.840649" /><path
       d="m 702.29,238.77 c 5.46,-18.88 8.83,-38.3 9.76,-57.94 q 0.01,-0.09 0.09,-0.09 0.16,-0.01 0.17,0.14 0.66,7.68 0.21,15.37 -1.2,20.5 -4.6,40.75 c -4.9,29.16 -20.72,55.5 -40.8,77.02 a 0.26,0.26 0 0 1 -0.45,-0.23 q 0.94,-4.98 1.46,-10.13 c 0.51,-5.04 2.49,-8.35 5.34,-12.17 12.27,-16.49 23.02,-32.69 28.82,-52.72 z"
       id="path92"
       style="display:inline;fill:url(#linearGradient21266);fill-opacity:1;stroke-width:0.840649" /><path
       d="m 795.42,238.7 q 9.43,-21.77 6.1,-47.58 -0.06,-0.47 0.23,-0.1 l 0.23,0.29 q 0.12,0.15 0.17,0.35 c 4,16.44 4,35.66 -0.35,52.33 q -2.06,7.92 -7.54,18.44 -15.61,29.96 -36.3,56.75 -0.31,0.4 -0.27,-0.11 l 2.96,-37.96 a 1.53,1.53 0 0 1 0.52,-1.03 c 13.96,-11.73 27.53,-25.86 34.25,-41.38 z"
       id="path94"
       style="display:inline;fill:url(#linearGradient21268);fill-opacity:1;stroke-width:0.840649" /><path
       d="m 223.38,191.63 q -0.14,-0.24 0.11,-0.36 0.35,-0.19 0.3,0.21 c -2.4,22.7 1.87,43.69 15.51,62.25 7.09,9.66 16.27,19.19 25.63,26.74 a 1.12,1.12 0 0 1 0.41,0.8 q 0.79,18.94 3.23,37.74 a 0.23,0.22 -67.7 0 1 -0.4,0.17 Q 246.04,290.52 229.23,258.39 C 219,238.84 218.82,212.65 223.38,191.63 Z"
       id="path96"
       style="fill:url(#linearGradient21270);fill-opacity:1;stroke-width:0.840649" /><path
       d="m 384.69,379.68 q -0.73,-0.61 -0.27,0.23 9.33,17.36 21.79,32.58 a 0.12020815,0.12020815 0 0 1 -0.17,0.17 C 370.62,383.82 334.87,355.81 307.53,318.2 282.82,284.21 271.73,245.94 268.5,204.3 q -0.37,-4.89 0.6,-0.09 c 14.27,70.31 65.57,124.39 120.08,167.26 a 0.43,0.43 0 0 0 0.67,-0.47 q -10.76,-32.17 -23.8,-63.49 -1.18,-2.86 0.41,-0.21 c 11.25,18.69 23.25,37.03 35.79,54.87 q 33.39,47.52 65.76,94.4 1.92,2.79 -0.34,0.26 C 457.3,445.22 447.61,436.15 434.36,423.75 q -24.39,-22.81 -49.67,-44.07 z"
       id="path98"
       style="fill:url(#linearGradient21272);fill-opacity:1;stroke-width:0.840649" /><path
       d="m 641.97,379.31 q -0.16,-0.33 -0.43,-0.09 c -29.52,25.34 -58.81,50.66 -85.27,79.05 q -0.15,0.16 -0.17,-0.06 -0.02,-0.2 0.04,-0.28 2.51,-3.1 6.46,-8.82 c 30.69,-44.4 66.7,-91.93 95.88,-140.44 q 1.54,-2.57 0.4,0.2 -12.48,30.18 -22.32,61.32 a 0.43,0.43 0 0 0 0.68,0.47 C 691.82,327.12 742.7,275.29 756.43,204.41 q 1.26,-6.51 0.67,0.09 -1.27,14.18 -3.52,28.77 -7.36,47.45 -35.79,86.01 -17.74,24.04 -39.69,44.33 c -18.85,17.42 -38.97,33.14 -58.46,49.79 a 0.21,0.21 0 0 1 -0.3,-0.29 q 12.57,-15.53 22.54,-33.06 0.23,-0.41 0.09,-0.74 z"
       id="path100"
       style="fill:url(#linearGradient21274);fill-opacity:1;stroke-width:0.840649" /><path
       d="m 654.62,282.27 q 7.58,3.61 13.54,7.14 2.43,1.44 -0.2,0.4 Q 614.64,268.67 556.5,263.5 c -66.05,-5.87 -134.04,1.37 -195.41,25.73 q -6.27,2.5 -0.33,-0.71 c 88.76,-47.96 202.79,-49.66 293.86,-6.25 z"
       id="path102"
       style="fill:url(#linearGradient21276);fill-opacity:1;stroke-width:0.840649" /><path
       d="m 299.48,379.76 q -32.25,-11.08 -58.82,-32.36 -1.81,-1.45 -4.92,-7.34 -9.57,-18.14 -17.64,-36.7 a 0.25,0.25 0 0 1 0.43,-0.24 c 21.92,32.39 50.73,54.05 86.36,69.57 1.14,0.49 2.62,1.59 3.29,2.38 q 9.15,10.94 19.06,21.17 0.65,0.68 -0.23,0.36 -0.18,-0.07 -0.67,-0.46 c -8.28,-6.6 -17.01,-13 -26.86,-16.38 z"
       id="path104"
       style="fill:url(#linearGradient21278);fill-opacity:1;stroke-width:0.840649" /><path
       d="m 807.17,303.63 c -5.48,12.36 -11.21,24.95 -17.5,37 -2.4,4.61 -5.55,7.27 -9.51,10.29 q -25.68,19.57 -56.41,29.58 -3.93,1.28 -9.69,5.32 -7.6,5.32 -15.02,10.86 -0.12,0.1 -0.18,-0.05 -0.02,-0.05 -0.04,-0.08 -0.04,-0.06 -0.01,-0.1 9.92,-10.22 18.97,-21.21 c 1.16,-1.41 2.37,-1.98 3.92,-2.72 q 9.6,-4.62 18.96,-9.69 40.08,-21.71 65.99,-59.48 a 0.3003422,0.29033079 -16.2 0 1 0.52,0.28 z"
       id="path106"
       style="fill:url(#linearGradient21280);fill-opacity:1;stroke-width:0.840649" /><path
       d="m 512.34,463.44 a 0.38,0.38 0 0 0 0.7,0 q 20.35,-46.36 50.59,-86.83 0.08,-0.11 0.24,0 0.09,0.06 0.04,0.16 c -20.34,36.04 -37.19,74.09 -50.71,113.18 q -0.17,0.48 -0.34,0 -20.52,-59.02 -51.1,-113.49 a 0.14,0.14 0 0 1 0.13,-0.21 q 0.2,0 0.21,0.14 c 19.8,27.11 37.38,56.02 50.24,87.05 z"
       id="path108"
       style="fill:url(#linearGradient21282);fill-opacity:1;stroke-width:0.840649" /><path
       d="m 240.79,420.92 c -10.47,-0.24 -19.78,-6.39 -28.96,-12.54 q -2.3,-1.54 -3.56,-2.89 -0.75,-0.81 0.28,-0.43 4.43,1.64 8.81,3.26 27.08,10.06 52.37,-3.14 a 0.19,0.18 6.2 0 1 0.23,0.28 c -7.12,8.36 -18,15.72 -29.17,15.46 z"
       id="path110"
       style="fill:url(#linearGradient21284);fill-opacity:1;stroke-width:0.840649" /><path
       d="m 756.36,405.25 c 7.84,3.94 14.26,6.35 23.01,7.22 12.35,1.23 25.92,-2.48 37.34,-7.57 a 0.28,0.27 -77.3 0 1 0.29,0.46 q -10.6,9.14 -24,13.93 c -14.34,5.14 -27.62,-3.35 -36.87,-13.73 a 0.2,0.19 82.1 0 1 0.23,-0.31 z"
       id="path112"
       style="fill:url(#linearGradient21286);fill-opacity:1;stroke-width:0.840649" /><path
       d="m 687.52,478.28 c 4.31,-14.91 3.75,-29.74 0.79,-45.13 q -0.11,-0.56 0.39,-0.82 l 32.77,-17.06 q 0.42,-0.22 0.58,0.23 c 15.14,42.3 3.29,87.31 -31.07,116.21 q -23.15,19.47 -52.01,23.39 c -36.99,5.03 -70.39,-14.49 -85.54,-48.11 q -0.38,-0.84 0.34,-0.27 c 1.72,1.37 3.4,3.71 4.48,4.8 9.71,9.71 21.43,17 34.72,20.67 40.58,11.21 82.82,-13.4 94.55,-53.91 z"
       id="path114"
       style="fill:url(#linearGradient21288);fill-opacity:1;stroke-width:0.840649" /><path
       d="m 304.78,415.26 32.26,16.79 q 0.45,0.23 0.34,0.72 -9.86,41.65 15.33,72.93 c 31.08,38.61 87.16,38.95 118.74,0.62 a 0.36,0.36 0 0 1 0.61,0.38 c -16.95,38.05 -55.39,56.52 -95.81,46.5 -31.82,-7.89 -59.24,-33.04 -71.26,-63.24 -9.51,-23.9 -9.49,-50.22 -0.77,-74.48 a 0.4,0.4 0 0 1 0.56,-0.22 z"
       id="path116"
       style="display:inline;fill:url(#linearGradient21290);fill-opacity:1;stroke-width:0.840649" /><path
       d="m 250.33,444.57 q -16.67,8.3 -26.56,20.43 -5.65,6.94 -1.22,-0.84 5.29,-9.29 11.46,-18.02 a 1.78,1.77 12.9 0 1 1.17,-0.73 l 19.36,-3.33 q 1.07,-0.18 0.16,0.4 c -1.35,0.85 -3.3,1.55 -4.37,2.09 z"
       id="path118"
       style="fill:url(#linearGradient21292);fill-opacity:1;stroke-width:0.840649" /><path
       d="m 771.58,442.18 q 9.27,1.73 18.6,3.06 c 1.44,0.21 2.03,0.93 2.78,2.03 q 6.71,9.85 12.52,20.65 a 0.19,0.18 -79.5 0 1 -0.3,0.21 q -13.84,-16.76 -33.7,-25.66 -1.2,-0.54 0.1,-0.29 z"
       id="path120"
       style="fill:url(#linearGradient21294);fill-opacity:1;stroke-width:0.840649" /><path
       d="m 461.82,465.62 q 25.06,10.75 40.9,32.51 a 0.38,0.38 0 0 1 -0.55,0.51 q -5.16,-4.22 -10.44,-7.99 c -11.21,-8.03 -24.62,-14.44 -33.56,-25.23 a 0.51,0.51 0 0 1 0.5,-0.83 q 1.45,0.3 3.15,1.03 z"
       id="path126"
       style="fill:url(#linearGradient21296);fill-opacity:1;stroke-width:0.840649" /><path
       d="m 559.57,467.65 c 1.19,-0.55 4.9,-2.59 6.67,-2.61 q 2.86,-0.03 0.74,1.9 c -13.48,12.22 -27.76,19.34 -43.37,31.61 a 0.3,0.3 0 0 1 -0.45,-0.38 q 1.07,-1.93 2.73,-4.01 13.89,-17.37 33.68,-26.51 z"
       id="path128"
       style="fill:url(#linearGradient21298);fill-opacity:1;stroke-width:0.840649" /><path
       d="m 219.06,568.02 q -2.89,-23.08 -0.98,-46.27 1.16,-14.18 4.26,-24.19 c 1.11,-3.61 4.12,-6.44 6.82,-9.34 q 11.74,-12.53 26.09,-22.16 a 0.34,0.34 0 0 1 0.47,0.46 c -19.38,30.72 -30.1,65.95 -36.15,101.51 q -0.29,1.72 -0.51,-0.01 z"
       id="path130"
       style="fill:url(#linearGradient21300);fill-opacity:1;stroke-width:0.840649" /><path
       d="m 782.29,488.01 q -5.21,-10.99 -12.11,-21.35 a 0.23,0.23 0 0 1 0.32,-0.31 q 17.51,11.86 31.36,28.04 c 0.69,0.8 1.57,2.63 1.83,3.67 5.78,23.17 5.99,46.98 3.67,70.73 a 0.26004807,0.26004807 0 0 1 -0.52,0.01 q -6.24,-42.15 -24.55,-80.79 z"
       id="path132"
       style="fill:url(#linearGradient21302);fill-opacity:1;stroke-width:0.840649" /><path
       d="m 757.63,681.95 c 8.87,-30.61 11.05,-63.79 9.1,-95.45 q -2.25,-36.73 -15.47,-71.04 a 0.2,0.2 0 0 1 0.32,-0.21 c 23.96,23.61 36.73,50.34 35.22,84.55 -1.29,29.17 -12.4,58.36 -29.11,82.18 a 0.03354102,0.03354102 0 0 1 -0.06,-0.03 z"
       id="path134"
       style="fill:url(#linearGradient21304);fill-opacity:1;stroke-width:0.840649" /><path
       d="m 240.19,577.55 c 2.61,-24.51 16.44,-45.2 33.91,-61.92 a 0.29,0.29 0 0 1 0.47,0.32 c -18.83,46.17 -20.26,101.29 -10.49,149.59 q 1.66,8.23 3.92,15.33 0.65,2.03 -0.5,0.23 C 247.24,649.44 236.15,615.45 240.19,577.55 Z"
       id="path136"
       style="fill:url(#linearGradient21306);fill-opacity:1;stroke-width:0.840649" /><path
       d="m 617.62,582.75 a 0.26,0.25 78.4 0 0 0.26,-0.4 l -6.96,-9.45 a 0.61,0.6 -10.9 0 1 0.64,-0.94 q 16.18,4.13 32.88,3.79 a 0.56,0.56 0 0 0 0.32,-1.02 l -6.84,-4.89 a 0.41,0.41 0 0 1 0.16,-0.73 q 7.69,-1.57 15.08,-3.41 36.48,-9.06 61.32,-36.99 0.18,-0.21 0.18,0.07 0,0.2 -0.05,0.27 -19.99,25.94 -45.75,44.32 c -12.96,9.25 -28.32,15.84 -44.41,16.42 a 1.77,1.76 -74.7 0 0 -1.43,0.82 q -11.86,18.88 -28.54,33.66 -0.62,0.54 -0.52,-0.28 1.79,-15.13 -5.21,-28.53 a 0.45,0.45 0 0 0 -0.84,0.15 c -2.28,18.9 -12.08,36.93 -24.65,51.18 a 0.27,0.27 0 0 1 -0.46,-0.26 q 7.18,-21.17 2.41,-43.08 a 0.34,0.34 0 0 0 -0.65,-0.06 q -8.41,19.33 -25.38,31.9 -0.03,0.03 -0.03,0.11 0,0.03 -0.01,0.04 -0.12,0.14 -0.01,-0.02 21.91,-31.64 18.6,-70.43 -0.49,-5.64 -1.98,-10.98 a 0.21,0.21 0 0 1 0.37,-0.18 q 10.7,15.85 16.77,33.96 a 0.44,0.44 0 0 0 0.84,-0.03 q 3.28,-12.21 1.59,-24.8 a 0.38,0.38 0 0 1 0.62,-0.35 q 18.52,14.82 41.68,20.14 z"
       id="path138"
       style="display:inline;fill:url(#linearGradient21308);fill-opacity:1;stroke-width:0.840649" /><path
       d="m 438.04,596.37 q -0.37,-2.13 -1.35,-0.21 -6.49,12.75 -4.92,27.09 0.11,0.93 -0.6,0.33 -16.77,-14.29 -27.98,-33.26 -0.26,-0.44 -0.78,-0.47 -18.47,-1.03 -34.39,-10.45 -33.46,-19.81 -55.05,-48.04 -4.26,-5.56 0.4,-0.32 c 18.93,21.31 46.11,33.83 74.07,37.98 a 0.45,0.45 0 0 1 0.21,0.8 L 381,574.9 a 0.38,0.38 0 0 0 0.22,0.69 q 16.86,0.39 33.11,-3.99 a 0.5,0.5 0 0 1 0.54,0.76 l -6.62,9.67 a 0.33,0.33 0 0 0 0.36,0.5 q 22.78,-5.98 41.58,-20.1 0.66,-0.49 0.53,0.32 -2.01,12.64 1.47,24.97 a 0.41,0.41 0 0 0 0.77,0.03 q 6.82,-18.09 17.1,-34.47 a 0.23,0.23 0 0 1 0.42,0.17 c -6.27,28.13 0.09,58.23 15.96,82.14 a 0.08,0.07 -86.9 0 1 -0.11,0.1 c -10.32,-8.81 -19.64,-19.22 -24.7,-31.96 a 0.37,0.37 0 0 0 -0.7,0.05 q -4.39,18.18 0.34,36.51 0.81,3.12 1.52,6.27 0.16,0.73 -0.34,0.17 -19.38,-21.6 -24.41,-50.36 z"
       id="path140"
       style="display:inline;fill:url(#linearGradient21310);fill-opacity:1;stroke-width:0.840649" /><path
       d="m 516.43,538.44 q 9.27,13 14.14,25.34 -14.06,40.67 -17.12,82.37 0,0.11 -0.55,4.7 -0.6,5 0.99,9.59 l -0.27,1.05 q -0.2,0.79 -0.44,0.01 l -1.79,-5.97 q -4.96,-30.15 -6.15,-39.27 -5.08,-38.93 11.19,-77.82 z"
       id="path142"
       style="fill:url(#linearGradient21312);fill-opacity:1;stroke-width:0.840649" /><path
       d="m 297.21,561.36 c 4.29,20.22 13.23,38.46 24.94,55.51 a 1.91,1.88 36.7 0 1 0.25,1.63 q -17.05,56.74 5.37,111.39 a 0.07,0.07 0 0 1 -0.09,0.09 l -0.34,-0.13 q -0.07,-0.03 -0.11,-0.09 -8,-12.97 -11.21,-18.84 -38.42,-70.26 -19.37,-149.57 a 0.29,0.29 0 0 1 0.56,0.01 z"
       id="path144"
       style="fill:url(#linearGradient21314);fill-opacity:1;stroke-width:0.840649" /><path
       d="M 703.46,617.01 C 715.1,600.42 723.9,581 728.45,561.17 a 0.3,0.3 0 0 1 0.58,0 q 6.76,28.09 6.34,56.59 c -0.6,40.99 -14.64,76.64 -36.51,110.72 q -1.84,2.87 -0.51,-0.27 c 14.31,-33.94 16.78,-74.06 4.87,-109.54 a 1.89,1.89 0 0 1 0.24,-1.66 z"
       id="path146"
       style="fill:url(#linearGradient21316);fill-opacity:1;stroke-width:0.840649" /><path
       d="m 380.85,679.58 q 0.42,1.29 -0.39,0.21 -27.98,-37.25 -42.55,-81.54 -0.66,-2.03 0.93,-0.61 11.49,10.26 21.92,23.11 c 3.68,4.54 5.22,8.18 6.84,14.33 q 5.73,21.66 13.25,44.5 z"
       id="path148"
       style="fill:url(#linearGradient21318);fill-opacity:1;stroke-width:0.840649" /><path
       d="m 688.39,597.52 c -8.64,29.66 -23.97,58.34 -42.96,82.71 q -0.63,0.81 -0.31,-0.16 8.27,-24.77 15.31,-50.41 c 0.51,-1.86 1.85,-4.76 3.07,-6.29 q 11.18,-14.04 24.43,-26.14 0.74,-0.67 0.46,0.29 z"
       id="path150"
       style="fill:url(#linearGradient21320);fill-opacity:1;stroke-width:0.840649" /><path
       d="m 402.06,651.7 c 20.57,31.9 35.74,66.05 41.52,103.66 a 0.14,0.13 28.9 0 1 -0.26,0.07 c -9.48,-20.08 -21.5,-37.65 -35.82,-54.57 -1.34,-1.59 -1.68,-2.99 -2.11,-4.9 q -4.95,-21.89 -3.98,-44.08 a 0.36,0.35 -60.4 0 1 0.65,-0.18 z"
       id="path152"
       style="fill:url(#linearGradient21322);fill-opacity:1;stroke-width:0.840649" /><path
       d="m 582.49,755.55 c 5.46,-37.85 20.2,-71.47 40.9,-103.26 q 0.58,-0.9 0.65,0.17 1.36,22.39 -3.22,44.79 -0.39,1.9 -2.39,4.2 -21.57,24.7 -35.73,54.16 a 0.11,0.11 0 0 1 -0.21,-0.06 z"
       id="path154"
       style="fill:url(#linearGradient21324);fill-opacity:1;stroke-width:0.840649" /><path
       d="m 368.46,749.14 c -17.7,-16.86 -24.32,-44.45 -26.41,-68.09 q -0.12,-1.41 0.55,-0.16 14.4,26.95 35.42,49.1 a 3.09,3.07 -65.7 0 1 0.85,2.27 c -1.19,30.01 4.92,59.29 20.87,85.08 a 0.15,0.15 0 0 1 -0.23,0.19 q -15.23,-14.08 -26.76,-31.5 -11.32,-17.13 -19.23,-38.89 -0.17,-0.47 0.31,-0.33 7.13,2.12 14.55,2.51 0.28,0.02 0.08,-0.18 z"
       id="path156"
       style="display:inline;fill:url(#linearGradient21326);fill-opacity:1;stroke-width:0.840649" /><path
       d="m 658.06,749.77 14.76,-2.96 a 0.18,0.17 4.6 0 1 0.2,0.23 q -14.83,40.86 -46.42,70.59 a 0.32,0.31 84.6 0 1 -0.48,-0.4 c 15.65,-24.91 22.55,-55.18 21.5,-84.5 q -0.03,-0.8 0,-1.61 0.02,-0.53 0.38,-0.92 20.92,-22.11 35.2,-48.98 a 0.29,0.28 -29 0 1 0.54,0.15 q -1.69,22.18 -9.28,42.36 -5.83,15.5 -16.58,25.7 -0.51,0.48 0.18,0.34 z"
       id="path158"
       style="display:inline;fill:url(#linearGradient21328);fill-opacity:1;stroke-width:0.840649" /><g
       id="g1360"
       inkscape:label="Eyes"
       style="display:inline;fill:url(#linearGradient15166);fill-opacity:1;stroke-width:0.840649"><path
         d="m 641.73,467.41 -19.19,-0.17 a 0.31,0.31 0 0 1 -0.14,-0.58 l 41.41,-21.08 a 0.48,0.47 72.9 0 1 0.69,0.37 q 3.21,28.71 -14.7,47.73 c -16.1,17.1 -40.96,22.05 -61.64,9.57 q -6.9,-4.16 -13.14,-10.14 -0.77,-0.74 0.23,-1.13 6.68,-2.63 12.7,-6.49 a 0.61,0.6 -33.3 0 1 0.83,0.17 q 3.26,4.85 6.5,6.79 18.58,11.19 35.24,-1.63 10.98,-8.45 11.72,-22.87 a 0.51,0.51 0 0 0 -0.51,-0.54 z"
         id="path122"
         style="display:inline;fill:url(#linearGradient459);fill-opacity:1;stroke-width:0.840649" /><path
         d="m 384,467.91 q -0.39,5.9 2.11,11.25 c 9.43,20.25 37.11,25.54 51.24,6.9 a 0.74,0.74 0 0 1 0.93,-0.2 l 12.49,6.75 a 0.44,0.43 37.8 0 1 0.09,0.7 q -4.15,3.77 -8.86,7.13 -22.12,15.81 -46.77,6.33 -7.57,-2.9 -14.42,-8.75 c -15.13,-12.91 -22.28,-31.76 -19.6,-51.68 q 0.13,-0.98 1.01,-0.54 l 41.67,20.96 a 0.27,0.26 -31.8 0 1 -0.12,0.5 l -19.19,0.11 q -0.54,0 -0.58,0.54 z"
         id="path124"
         style="display:inline;fill:url(#linearGradient461);fill-opacity:1;stroke-width:0.840649" /></g></g></svg>
